<mxfile host="app.diagrams.net" agent="Mozilla/5.0 (Windows NT 10.0; Win64; x64; rv:136.0) Gecko/20100101 Firefox/136.0" version="26.1.0">
  <diagram name="Page-1" id="Qa8Z2MiYDP6JMueBMLGJ">
    <mxGraphModel dx="4450" dy="-362" grid="1" gridSize="10" guides="1" tooltips="1" connect="1" arrows="1" fold="1" page="1" pageScale="1" pageWidth="595" pageHeight="842" math="1" shadow="0">
      <root>
        <mxCell id="0" />
        <mxCell id="1" parent="0" />
        <mxCell id="fh1sFyK4dI6g1rR1oxdk-13" value="" style="group" vertex="1" connectable="0" parent="1">
          <mxGeometry x="-3562" y="880.5" width="272" height="276" as="geometry" />
        </mxCell>
        <mxCell id="yGZiBlL_xPLmV6oLcwZ--3" value="" style="ellipse;whiteSpace=wrap;html=1;aspect=fixed;fillColor=#F0F0F0;" parent="fh1sFyK4dI6g1rR1oxdk-13" vertex="1">
          <mxGeometry x="42" y="19.5" width="30" height="30" as="geometry" />
        </mxCell>
        <mxCell id="yGZiBlL_xPLmV6oLcwZ--6" value="" style="endArrow=blockThin;html=1;rounded=0;exitX=1;exitY=0.5;exitDx=0;exitDy=0;entryX=0;entryY=0;entryDx=0;entryDy=0;endFill=1;" parent="fh1sFyK4dI6g1rR1oxdk-13" target="yGZiBlL_xPLmV6oLcwZ--3" edge="1">
          <mxGeometry width="50" height="50" relative="1" as="geometry">
            <mxPoint x="22" y="9.5" as="sourcePoint" />
            <mxPoint x="122" y="-20.5" as="targetPoint" />
            <Array as="points">
              <mxPoint x="42" y="9.5" />
            </Array>
          </mxGeometry>
        </mxCell>
        <mxCell id="yGZiBlL_xPLmV6oLcwZ--7" value="" style="endArrow=blockThin;html=1;rounded=0;entryX=0;entryY=1;entryDx=0;entryDy=0;exitX=1;exitY=0.5;exitDx=0;exitDy=0;endFill=1;" parent="fh1sFyK4dI6g1rR1oxdk-13" target="yGZiBlL_xPLmV6oLcwZ--3" edge="1">
          <mxGeometry width="50" height="50" relative="1" as="geometry">
            <mxPoint x="22" y="59.5" as="sourcePoint" />
            <mxPoint x="62" y="69.5" as="targetPoint" />
            <Array as="points">
              <mxPoint x="42" y="59.5" />
            </Array>
          </mxGeometry>
        </mxCell>
        <mxCell id="yGZiBlL_xPLmV6oLcwZ--8" value="&lt;font style=&quot;font-size: 14px;&quot;&gt;$$\geq$$&lt;/font&gt;" style="text;html=1;align=center;verticalAlign=middle;whiteSpace=wrap;rounded=0;" parent="fh1sFyK4dI6g1rR1oxdk-13" vertex="1">
          <mxGeometry x="49.5" y="27" width="15" height="15" as="geometry" />
        </mxCell>
        <mxCell id="yGZiBlL_xPLmV6oLcwZ--12" style="edgeStyle=orthogonalEdgeStyle;rounded=0;orthogonalLoop=1;jettySize=auto;html=1;exitX=1;exitY=0.5;exitDx=0;exitDy=0;entryX=0;entryY=0.5;entryDx=0;entryDy=0;endArrow=blockThin;endFill=1;curved=0;" parent="fh1sFyK4dI6g1rR1oxdk-13" target="yGZiBlL_xPLmV6oLcwZ--35" edge="1">
          <mxGeometry relative="1" as="geometry">
            <mxPoint x="72" y="34.5" as="sourcePoint" />
          </mxGeometry>
        </mxCell>
        <mxCell id="yGZiBlL_xPLmV6oLcwZ--18" value="" style="ellipse;whiteSpace=wrap;html=1;aspect=fixed;fillColor=#F0F0F0;" parent="fh1sFyK4dI6g1rR1oxdk-13" vertex="1">
          <mxGeometry x="42" y="89.5" width="30" height="30" as="geometry" />
        </mxCell>
        <mxCell id="yGZiBlL_xPLmV6oLcwZ--21" value="" style="endArrow=blockThin;html=1;rounded=0;exitX=1;exitY=0.5;exitDx=0;exitDy=0;entryX=0;entryY=0;entryDx=0;entryDy=0;endFill=1;" parent="fh1sFyK4dI6g1rR1oxdk-13" target="yGZiBlL_xPLmV6oLcwZ--18" edge="1">
          <mxGeometry width="50" height="50" relative="1" as="geometry">
            <mxPoint x="22" y="79.5" as="sourcePoint" />
            <mxPoint x="122" y="49.5" as="targetPoint" />
            <Array as="points">
              <mxPoint x="42" y="79.5" />
            </Array>
          </mxGeometry>
        </mxCell>
        <mxCell id="yGZiBlL_xPLmV6oLcwZ--22" value="" style="endArrow=blockThin;html=1;rounded=0;entryX=0;entryY=1;entryDx=0;entryDy=0;exitX=1;exitY=0.5;exitDx=0;exitDy=0;endFill=1;" parent="fh1sFyK4dI6g1rR1oxdk-13" target="yGZiBlL_xPLmV6oLcwZ--18" edge="1">
          <mxGeometry width="50" height="50" relative="1" as="geometry">
            <mxPoint x="22" y="129.5" as="sourcePoint" />
            <mxPoint x="62" y="139.5" as="targetPoint" />
            <Array as="points">
              <mxPoint x="42" y="129.5" />
            </Array>
          </mxGeometry>
        </mxCell>
        <mxCell id="yGZiBlL_xPLmV6oLcwZ--23" value="&lt;font style=&quot;font-size: 14px;&quot;&gt;$$\geq$$&lt;/font&gt;" style="text;html=1;align=center;verticalAlign=middle;whiteSpace=wrap;rounded=0;" parent="fh1sFyK4dI6g1rR1oxdk-13" vertex="1">
          <mxGeometry x="49.5" y="97" width="15" height="15" as="geometry" />
        </mxCell>
        <mxCell id="yGZiBlL_xPLmV6oLcwZ--28" style="edgeStyle=orthogonalEdgeStyle;rounded=0;orthogonalLoop=1;jettySize=auto;html=1;exitX=1;exitY=0.5;exitDx=0;exitDy=0;entryX=0;entryY=0.5;entryDx=0;entryDy=0;endArrow=blockThin;endFill=1;" parent="fh1sFyK4dI6g1rR1oxdk-13" target="yGZiBlL_xPLmV6oLcwZ--37" edge="1">
          <mxGeometry relative="1" as="geometry">
            <mxPoint x="72" y="104.5" as="sourcePoint" />
          </mxGeometry>
        </mxCell>
        <mxCell id="yGZiBlL_xPLmV6oLcwZ--35" value="" style="rounded=0;whiteSpace=wrap;html=1;" parent="fh1sFyK4dI6g1rR1oxdk-13" vertex="1">
          <mxGeometry x="87" y="14.5" width="20" height="40" as="geometry" />
        </mxCell>
        <mxCell id="yGZiBlL_xPLmV6oLcwZ--36" value="" style="triangle;whiteSpace=wrap;html=1;rotation=-90;" parent="fh1sFyK4dI6g1rR1oxdk-13" vertex="1">
          <mxGeometry x="92" y="44.5" width="10" height="10" as="geometry" />
        </mxCell>
        <mxCell id="yGZiBlL_xPLmV6oLcwZ--37" value="" style="rounded=0;whiteSpace=wrap;html=1;" parent="fh1sFyK4dI6g1rR1oxdk-13" vertex="1">
          <mxGeometry x="87" y="84.5" width="20" height="40" as="geometry" />
        </mxCell>
        <mxCell id="yGZiBlL_xPLmV6oLcwZ--38" value="" style="triangle;whiteSpace=wrap;html=1;rotation=-90;" parent="fh1sFyK4dI6g1rR1oxdk-13" vertex="1">
          <mxGeometry x="92" y="114.5" width="10" height="10" as="geometry" />
        </mxCell>
        <mxCell id="yGZiBlL_xPLmV6oLcwZ--41" value="" style="ellipse;whiteSpace=wrap;html=1;aspect=fixed;fillColor=#F0F0F0;" parent="fh1sFyK4dI6g1rR1oxdk-13" vertex="1">
          <mxGeometry x="42" y="159.5" width="30" height="30" as="geometry" />
        </mxCell>
        <mxCell id="yGZiBlL_xPLmV6oLcwZ--44" value="" style="endArrow=blockThin;html=1;rounded=0;exitX=1;exitY=0.5;exitDx=0;exitDy=0;entryX=0;entryY=0;entryDx=0;entryDy=0;endFill=1;" parent="fh1sFyK4dI6g1rR1oxdk-13" target="yGZiBlL_xPLmV6oLcwZ--41" edge="1">
          <mxGeometry width="50" height="50" relative="1" as="geometry">
            <mxPoint x="22" y="149.5" as="sourcePoint" />
            <mxPoint x="122" y="119.5" as="targetPoint" />
            <Array as="points">
              <mxPoint x="42" y="149.5" />
            </Array>
          </mxGeometry>
        </mxCell>
        <mxCell id="yGZiBlL_xPLmV6oLcwZ--45" value="" style="endArrow=blockThin;html=1;rounded=0;entryX=0;entryY=1;entryDx=0;entryDy=0;exitX=1;exitY=0.5;exitDx=0;exitDy=0;endFill=1;" parent="fh1sFyK4dI6g1rR1oxdk-13" target="yGZiBlL_xPLmV6oLcwZ--41" edge="1">
          <mxGeometry width="50" height="50" relative="1" as="geometry">
            <mxPoint x="22" y="199.5" as="sourcePoint" />
            <mxPoint x="62" y="209.5" as="targetPoint" />
            <Array as="points">
              <mxPoint x="42" y="199.5" />
            </Array>
          </mxGeometry>
        </mxCell>
        <mxCell id="yGZiBlL_xPLmV6oLcwZ--46" value="&lt;font style=&quot;font-size: 14px;&quot;&gt;$$\geq$$&lt;/font&gt;" style="text;html=1;align=center;verticalAlign=middle;whiteSpace=wrap;rounded=0;" parent="fh1sFyK4dI6g1rR1oxdk-13" vertex="1">
          <mxGeometry x="49.5" y="167" width="15" height="15" as="geometry" />
        </mxCell>
        <mxCell id="yGZiBlL_xPLmV6oLcwZ--50" style="edgeStyle=orthogonalEdgeStyle;rounded=0;orthogonalLoop=1;jettySize=auto;html=1;exitX=1;exitY=0.5;exitDx=0;exitDy=0;entryX=0;entryY=0.5;entryDx=0;entryDy=0;endArrow=blockThin;endFill=1;curved=0;" parent="fh1sFyK4dI6g1rR1oxdk-13" target="yGZiBlL_xPLmV6oLcwZ--73" edge="1">
          <mxGeometry relative="1" as="geometry">
            <mxPoint x="72" y="174.5" as="sourcePoint" />
          </mxGeometry>
        </mxCell>
        <mxCell id="yGZiBlL_xPLmV6oLcwZ--56" value="" style="ellipse;whiteSpace=wrap;html=1;aspect=fixed;fillColor=#F0F0F0;" parent="fh1sFyK4dI6g1rR1oxdk-13" vertex="1">
          <mxGeometry x="42" y="229.5" width="30" height="30" as="geometry" />
        </mxCell>
        <mxCell id="yGZiBlL_xPLmV6oLcwZ--59" value="" style="endArrow=blockThin;html=1;rounded=0;exitX=1;exitY=0.5;exitDx=0;exitDy=0;entryX=0;entryY=0;entryDx=0;entryDy=0;endFill=1;" parent="fh1sFyK4dI6g1rR1oxdk-13" target="yGZiBlL_xPLmV6oLcwZ--56" edge="1">
          <mxGeometry width="50" height="50" relative="1" as="geometry">
            <mxPoint x="22" y="219.5" as="sourcePoint" />
            <mxPoint x="122" y="189.5" as="targetPoint" />
            <Array as="points">
              <mxPoint x="42" y="219.5" />
            </Array>
          </mxGeometry>
        </mxCell>
        <mxCell id="yGZiBlL_xPLmV6oLcwZ--60" value="" style="endArrow=blockThin;html=1;rounded=0;entryX=0;entryY=1;entryDx=0;entryDy=0;exitX=1;exitY=0.5;exitDx=0;exitDy=0;endFill=1;" parent="fh1sFyK4dI6g1rR1oxdk-13" target="yGZiBlL_xPLmV6oLcwZ--56" edge="1">
          <mxGeometry width="50" height="50" relative="1" as="geometry">
            <mxPoint x="22" y="269.5" as="sourcePoint" />
            <mxPoint x="62" y="279.5" as="targetPoint" />
            <Array as="points">
              <mxPoint x="42" y="269.5" />
            </Array>
          </mxGeometry>
        </mxCell>
        <mxCell id="yGZiBlL_xPLmV6oLcwZ--61" value="&lt;font style=&quot;font-size: 14px;&quot;&gt;$$\geq$$&lt;/font&gt;" style="text;html=1;align=center;verticalAlign=middle;whiteSpace=wrap;rounded=0;" parent="fh1sFyK4dI6g1rR1oxdk-13" vertex="1">
          <mxGeometry x="49.5" y="237" width="15" height="15" as="geometry" />
        </mxCell>
        <mxCell id="yGZiBlL_xPLmV6oLcwZ--66" style="edgeStyle=orthogonalEdgeStyle;rounded=0;orthogonalLoop=1;jettySize=auto;html=1;exitX=1;exitY=0.5;exitDx=0;exitDy=0;entryX=0;entryY=0.5;entryDx=0;entryDy=0;endArrow=blockThin;endFill=1;" parent="fh1sFyK4dI6g1rR1oxdk-13" target="yGZiBlL_xPLmV6oLcwZ--75" edge="1">
          <mxGeometry relative="1" as="geometry">
            <mxPoint x="72" y="244.5" as="sourcePoint" />
          </mxGeometry>
        </mxCell>
        <mxCell id="yGZiBlL_xPLmV6oLcwZ--73" value="" style="rounded=0;whiteSpace=wrap;html=1;" parent="fh1sFyK4dI6g1rR1oxdk-13" vertex="1">
          <mxGeometry x="87" y="154.5" width="20" height="40" as="geometry" />
        </mxCell>
        <mxCell id="yGZiBlL_xPLmV6oLcwZ--74" value="" style="triangle;whiteSpace=wrap;html=1;rotation=-90;" parent="fh1sFyK4dI6g1rR1oxdk-13" vertex="1">
          <mxGeometry x="92" y="184.5" width="10" height="10" as="geometry" />
        </mxCell>
        <mxCell id="yGZiBlL_xPLmV6oLcwZ--75" value="" style="rounded=0;whiteSpace=wrap;html=1;" parent="fh1sFyK4dI6g1rR1oxdk-13" vertex="1">
          <mxGeometry x="87" y="224.5" width="20" height="40" as="geometry" />
        </mxCell>
        <mxCell id="yGZiBlL_xPLmV6oLcwZ--76" value="" style="triangle;whiteSpace=wrap;html=1;rotation=-90;" parent="fh1sFyK4dI6g1rR1oxdk-13" vertex="1">
          <mxGeometry x="92" y="254.5" width="10" height="10" as="geometry" />
        </mxCell>
        <mxCell id="yGZiBlL_xPLmV6oLcwZ--79" value="" style="ellipse;whiteSpace=wrap;html=1;aspect=fixed;fillColor=#F0F0F0;" parent="fh1sFyK4dI6g1rR1oxdk-13" vertex="1">
          <mxGeometry x="122" y="54.5" width="30" height="30" as="geometry" />
        </mxCell>
        <mxCell id="yGZiBlL_xPLmV6oLcwZ--80" value="&lt;font style=&quot;font-size: 14px;&quot;&gt;$$\geq$$&lt;/font&gt;" style="text;html=1;align=center;verticalAlign=middle;whiteSpace=wrap;rounded=0;" parent="fh1sFyK4dI6g1rR1oxdk-13" vertex="1">
          <mxGeometry x="129.5" y="62" width="15" height="15" as="geometry" />
        </mxCell>
        <mxCell id="yGZiBlL_xPLmV6oLcwZ--83" value="" style="ellipse;whiteSpace=wrap;html=1;aspect=fixed;fillColor=#F0F0F0;" parent="fh1sFyK4dI6g1rR1oxdk-13" vertex="1">
          <mxGeometry x="122" y="194.5" width="30" height="30" as="geometry" />
        </mxCell>
        <mxCell id="yGZiBlL_xPLmV6oLcwZ--84" value="&lt;font style=&quot;font-size: 14px;&quot;&gt;$$\geq$$&lt;/font&gt;" style="text;html=1;align=center;verticalAlign=middle;whiteSpace=wrap;rounded=0;" parent="fh1sFyK4dI6g1rR1oxdk-13" vertex="1">
          <mxGeometry x="129.5" y="202" width="15" height="15" as="geometry" />
        </mxCell>
        <mxCell id="yGZiBlL_xPLmV6oLcwZ--85" value="" style="endArrow=blockThin;html=1;rounded=0;exitX=1;exitY=0.5;exitDx=0;exitDy=0;entryX=0;entryY=0;entryDx=0;entryDy=0;endFill=1;" parent="fh1sFyK4dI6g1rR1oxdk-13" source="yGZiBlL_xPLmV6oLcwZ--35" target="yGZiBlL_xPLmV6oLcwZ--79" edge="1">
          <mxGeometry width="50" height="50" relative="1" as="geometry">
            <mxPoint x="127" y="69.5" as="sourcePoint" />
            <mxPoint x="177" y="19.5" as="targetPoint" />
            <Array as="points">
              <mxPoint x="117" y="34.5" />
            </Array>
          </mxGeometry>
        </mxCell>
        <mxCell id="yGZiBlL_xPLmV6oLcwZ--86" value="" style="endArrow=blockThin;html=1;rounded=0;exitX=1;exitY=0.5;exitDx=0;exitDy=0;entryX=0;entryY=1;entryDx=0;entryDy=0;endFill=1;" parent="fh1sFyK4dI6g1rR1oxdk-13" source="yGZiBlL_xPLmV6oLcwZ--37" target="yGZiBlL_xPLmV6oLcwZ--79" edge="1">
          <mxGeometry width="50" height="50" relative="1" as="geometry">
            <mxPoint x="157" y="149.5" as="sourcePoint" />
            <mxPoint x="207" y="99.5" as="targetPoint" />
            <Array as="points">
              <mxPoint x="117" y="104.5" />
            </Array>
          </mxGeometry>
        </mxCell>
        <mxCell id="yGZiBlL_xPLmV6oLcwZ--87" value="" style="endArrow=blockThin;html=1;rounded=0;exitX=1;exitY=0.5;exitDx=0;exitDy=0;entryX=0;entryY=0;entryDx=0;entryDy=0;endFill=1;" parent="fh1sFyK4dI6g1rR1oxdk-13" source="yGZiBlL_xPLmV6oLcwZ--73" target="yGZiBlL_xPLmV6oLcwZ--83" edge="1">
          <mxGeometry width="50" height="50" relative="1" as="geometry">
            <mxPoint x="187" y="209.5" as="sourcePoint" />
            <mxPoint x="237" y="159.5" as="targetPoint" />
            <Array as="points">
              <mxPoint x="117" y="174.5" />
            </Array>
          </mxGeometry>
        </mxCell>
        <mxCell id="yGZiBlL_xPLmV6oLcwZ--88" value="" style="endArrow=blockThin;html=1;rounded=0;exitX=1;exitY=0.5;exitDx=0;exitDy=0;entryX=0;entryY=1;entryDx=0;entryDy=0;endFill=1;" parent="fh1sFyK4dI6g1rR1oxdk-13" source="yGZiBlL_xPLmV6oLcwZ--75" target="yGZiBlL_xPLmV6oLcwZ--83" edge="1">
          <mxGeometry width="50" height="50" relative="1" as="geometry">
            <mxPoint x="157" y="289.5" as="sourcePoint" />
            <mxPoint x="207" y="239.5" as="targetPoint" />
            <Array as="points">
              <mxPoint x="117" y="244.5" />
            </Array>
          </mxGeometry>
        </mxCell>
        <mxCell id="yGZiBlL_xPLmV6oLcwZ--97" style="edgeStyle=orthogonalEdgeStyle;rounded=0;orthogonalLoop=1;jettySize=auto;html=1;exitX=1;exitY=0.5;exitDx=0;exitDy=0;entryX=0;entryY=0.5;entryDx=0;entryDy=0;endArrow=blockThin;endFill=1;" parent="fh1sFyK4dI6g1rR1oxdk-13" target="yGZiBlL_xPLmV6oLcwZ--105" edge="1">
          <mxGeometry relative="1" as="geometry">
            <mxPoint x="152" y="69.5" as="sourcePoint" />
          </mxGeometry>
        </mxCell>
        <mxCell id="yGZiBlL_xPLmV6oLcwZ--101" style="edgeStyle=orthogonalEdgeStyle;rounded=0;orthogonalLoop=1;jettySize=auto;html=1;exitX=1;exitY=0.5;exitDx=0;exitDy=0;entryX=0;entryY=0.5;entryDx=0;entryDy=0;endArrow=blockThin;endFill=1;" parent="fh1sFyK4dI6g1rR1oxdk-13" target="yGZiBlL_xPLmV6oLcwZ--107" edge="1">
          <mxGeometry relative="1" as="geometry">
            <mxPoint x="152" y="209.5" as="sourcePoint" />
          </mxGeometry>
        </mxCell>
        <mxCell id="yGZiBlL_xPLmV6oLcwZ--105" value="" style="rounded=0;whiteSpace=wrap;html=1;" parent="fh1sFyK4dI6g1rR1oxdk-13" vertex="1">
          <mxGeometry x="165" y="49.5" width="20" height="40" as="geometry" />
        </mxCell>
        <mxCell id="yGZiBlL_xPLmV6oLcwZ--106" value="" style="triangle;whiteSpace=wrap;html=1;rotation=-90;" parent="fh1sFyK4dI6g1rR1oxdk-13" vertex="1">
          <mxGeometry x="170" y="79.5" width="10" height="10" as="geometry" />
        </mxCell>
        <mxCell id="yGZiBlL_xPLmV6oLcwZ--107" value="" style="rounded=0;whiteSpace=wrap;html=1;" parent="fh1sFyK4dI6g1rR1oxdk-13" vertex="1">
          <mxGeometry x="165" y="189.5" width="20" height="40" as="geometry" />
        </mxCell>
        <mxCell id="yGZiBlL_xPLmV6oLcwZ--108" value="" style="triangle;whiteSpace=wrap;html=1;rotation=-90;" parent="fh1sFyK4dI6g1rR1oxdk-13" vertex="1">
          <mxGeometry x="170" y="219.5" width="10" height="10" as="geometry" />
        </mxCell>
        <mxCell id="fh1sFyK4dI6g1rR1oxdk-11" style="edgeStyle=orthogonalEdgeStyle;rounded=0;orthogonalLoop=1;jettySize=auto;html=1;endArrow=blockThin;endFill=1;" edge="1" parent="fh1sFyK4dI6g1rR1oxdk-13" source="yGZiBlL_xPLmV6oLcwZ--136">
          <mxGeometry relative="1" as="geometry">
            <mxPoint x="252" y="139.5" as="targetPoint" />
          </mxGeometry>
        </mxCell>
        <mxCell id="yGZiBlL_xPLmV6oLcwZ--136" value="" style="ellipse;whiteSpace=wrap;html=1;aspect=fixed;fillColor=#F0F0F0;" parent="fh1sFyK4dI6g1rR1oxdk-13" vertex="1">
          <mxGeometry x="200" y="124.5" width="30" height="30" as="geometry" />
        </mxCell>
        <mxCell id="yGZiBlL_xPLmV6oLcwZ--137" value="&lt;font style=&quot;font-size: 14px;&quot;&gt;$$\geq$$&lt;/font&gt;" style="text;html=1;align=center;verticalAlign=middle;whiteSpace=wrap;rounded=0;" parent="fh1sFyK4dI6g1rR1oxdk-13" vertex="1">
          <mxGeometry x="207.5" y="132" width="15" height="15" as="geometry" />
        </mxCell>
        <mxCell id="yGZiBlL_xPLmV6oLcwZ--138" value="" style="endArrow=blockThin;html=1;rounded=0;exitX=1;exitY=0.5;exitDx=0;exitDy=0;entryX=0;entryY=0;entryDx=0;entryDy=0;endFill=1;" parent="fh1sFyK4dI6g1rR1oxdk-13" source="yGZiBlL_xPLmV6oLcwZ--105" target="yGZiBlL_xPLmV6oLcwZ--136" edge="1">
          <mxGeometry width="50" height="50" relative="1" as="geometry">
            <mxPoint x="235" y="109.5" as="sourcePoint" />
            <mxPoint x="285" y="59.5" as="targetPoint" />
            <Array as="points">
              <mxPoint x="195" y="69.5" />
            </Array>
          </mxGeometry>
        </mxCell>
        <mxCell id="yGZiBlL_xPLmV6oLcwZ--139" value="" style="endArrow=blockThin;html=1;rounded=0;exitX=1;exitY=0.5;exitDx=0;exitDy=0;entryX=0;entryY=1;entryDx=0;entryDy=0;endFill=1;" parent="fh1sFyK4dI6g1rR1oxdk-13" source="yGZiBlL_xPLmV6oLcwZ--107" target="yGZiBlL_xPLmV6oLcwZ--136" edge="1">
          <mxGeometry width="50" height="50" relative="1" as="geometry">
            <mxPoint x="245" y="239.5" as="sourcePoint" />
            <mxPoint x="295" y="189.5" as="targetPoint" />
            <Array as="points">
              <mxPoint x="195" y="209.5" />
            </Array>
          </mxGeometry>
        </mxCell>
        <mxCell id="fh1sFyK4dI6g1rR1oxdk-1" value="$$x_0$$" style="text;html=1;align=center;verticalAlign=middle;whiteSpace=wrap;rounded=0;" vertex="1" parent="fh1sFyK4dI6g1rR1oxdk-13">
          <mxGeometry width="20" height="16.5" as="geometry" />
        </mxCell>
        <mxCell id="fh1sFyK4dI6g1rR1oxdk-2" value="$$x_1$$" style="text;html=1;align=center;verticalAlign=middle;whiteSpace=wrap;rounded=0;" vertex="1" parent="fh1sFyK4dI6g1rR1oxdk-13">
          <mxGeometry y="49.5" width="20" height="16.5" as="geometry" />
        </mxCell>
        <mxCell id="fh1sFyK4dI6g1rR1oxdk-3" value="$$x_2$$" style="text;html=1;align=center;verticalAlign=middle;whiteSpace=wrap;rounded=0;" vertex="1" parent="fh1sFyK4dI6g1rR1oxdk-13">
          <mxGeometry y="72" width="20" height="16.5" as="geometry" />
        </mxCell>
        <mxCell id="fh1sFyK4dI6g1rR1oxdk-4" value="$$x_3$$" style="text;html=1;align=center;verticalAlign=middle;whiteSpace=wrap;rounded=0;" vertex="1" parent="fh1sFyK4dI6g1rR1oxdk-13">
          <mxGeometry y="119.5" width="20" height="16.5" as="geometry" />
        </mxCell>
        <mxCell id="fh1sFyK4dI6g1rR1oxdk-5" value="$$x_4$$" style="text;html=1;align=center;verticalAlign=middle;whiteSpace=wrap;rounded=0;" vertex="1" parent="fh1sFyK4dI6g1rR1oxdk-13">
          <mxGeometry y="143" width="20" height="16.5" as="geometry" />
        </mxCell>
        <mxCell id="fh1sFyK4dI6g1rR1oxdk-6" value="$$x_5$$" style="text;html=1;align=center;verticalAlign=middle;whiteSpace=wrap;rounded=0;" vertex="1" parent="fh1sFyK4dI6g1rR1oxdk-13">
          <mxGeometry y="189.5" width="20" height="16.5" as="geometry" />
        </mxCell>
        <mxCell id="fh1sFyK4dI6g1rR1oxdk-7" value="$$x_6$$" style="text;html=1;align=center;verticalAlign=middle;whiteSpace=wrap;rounded=0;" vertex="1" parent="fh1sFyK4dI6g1rR1oxdk-13">
          <mxGeometry y="208" width="20" height="16.5" as="geometry" />
        </mxCell>
        <mxCell id="fh1sFyK4dI6g1rR1oxdk-8" value="$$x_6$$" style="text;html=1;align=center;verticalAlign=middle;whiteSpace=wrap;rounded=0;" vertex="1" parent="fh1sFyK4dI6g1rR1oxdk-13">
          <mxGeometry y="259.5" width="20" height="16.5" as="geometry" />
        </mxCell>
        <mxCell id="fh1sFyK4dI6g1rR1oxdk-9" value="$$y$$" style="text;html=1;align=center;verticalAlign=middle;whiteSpace=wrap;rounded=0;" vertex="1" parent="fh1sFyK4dI6g1rR1oxdk-13">
          <mxGeometry x="252" y="130.5" width="20" height="16.5" as="geometry" />
        </mxCell>
      </root>
    </mxGraphModel>
  </diagram>
</mxfile>
